<?xml version="1.0" encoding="UTF-8" standalone="no"?>
<!DOCTYPE svg PUBLIC "-//W3C//DTD SVG 1.1//EN" "http://www.w3.org/Graphics/SVG/1.1/DTD/svg11.dtd">
<svg xmlns="http://www.w3.org/2000/svg" version="1.1" viewBox="0.00 0.00 403.00 538.00">
<g stroke-width="2.00" fill="none" stroke-linecap="butt">
<path stroke="#94d19e" vector-effect="non-scaling-stroke" d="
  M 298.04 162.26
  Q 298.10 160.40 295.94 160.23"
/>
<path stroke="#43474a" vector-effect="non-scaling-stroke" d="
  M 288.93 182.49
  Q 285.53 175.82 280.10 172.20
  A 0.88 0.87 -2.0 0 0 278.92 173.46
  Q 282.23 177.68 282.74 184.13"
/>
<path stroke="#9aa3aa" vector-effect="non-scaling-stroke" d="
  M 282.74 184.13
  Q 278.40 177.04 271.50 175.50
  Q 246.24 169.88 220.99 163.98"
/>
<path stroke="#abacac" vector-effect="non-scaling-stroke" d="
  M 220.99 163.98
  Q 201.41 159.52 181.76 155.02
  Q 175.75 153.65 172.12 154.17
  C 161.07 155.78 157.65 163.48 155.28 174.04
  Q 134.31 267.42 112.56 360.59
  C 110.36 369.98 110.70 378.80 118.83 384.39
  Q 122.34 386.80 132.69 389.15
  Q 174.21 398.58 215.68 408.09
  Q 219.63 409.00 223.77 409.13"
/>
<path stroke="#43474a" vector-effect="non-scaling-stroke" d="
  M 223.77 409.13
  Q 219.15 410.78 213.01 409.65
  C 200.95 407.42 188.91 404.23 178.27 402.05
  C 169.00 400.14 159.18 397.56 150.64 395.69
  Q 134.14 392.08 117.77 387.91
  C 112.00 386.44 108.65 377.73 108.17 372.51
  Q 108.13 372.06 107.69 372.01
  L 106.66 371.89"
/>
<path stroke="#a77762" vector-effect="non-scaling-stroke" d="
  M 106.66 371.89
  L 122.71 301.75"
/>
<path stroke="#a98c7c" vector-effect="non-scaling-stroke" d="
  M 129.07 273.95
  L 130.00 269.52"
/>
<path stroke="#a77762" vector-effect="non-scaling-stroke" d="
  M 130.00 269.52
  L 140.83 222.02"
/>
<path stroke="#eef7fd" vector-effect="non-scaling-stroke" d="
  M 220.99 163.98
  Q 220.95 166.68 218.94 167.93
  Q 204.76 176.78 192.09 185.15
  Q 189.75 186.69 191.88 188.51
  Q 197.94 193.68 203.53 198.70
  Q 204.42 199.49 203.59 200.66
  Q 203.38 200.94 203.73 200.99
  L 204.21 201.05
  A 0.14 0.14 0.0 0 1 204.25 201.31
  Q 203.01 201.90 203.51 202.66"
/>
<path stroke="#afdeb8" vector-effect="non-scaling-stroke" d="
  M 203.51 202.66
  L 201.71 204.32"
/>
<path stroke="#e4f2e6" vector-effect="non-scaling-stroke" d="
  M 201.71 204.32
  C 193.40 205.40 177.65 211.37 173.55 219.94
  A 0.57 0.56 -77.7 0 1 173.06 220.26
  Q 172.93 220.26 172.78 220.25"
/>
<path stroke="#afdeb8" vector-effect="non-scaling-stroke" d="
  M 172.78 220.25
  Q 172.26 219.26 171.01 219.40
  A 1.11 1.10 -1.5 0 0 170.02 220.44
  Q 169.99 221.10 170.54 221.71"
/>
<path stroke="#e4f2e6" vector-effect="non-scaling-stroke" d="
  M 170.54 221.71
  C 170.52 222.59 170.61 223.15 170.12 223.93
  Q 161.43 237.65 163.95 254.01"
/>
<path stroke="#afdeb8" vector-effect="non-scaling-stroke" d="
  M 163.95 254.01
  C 161.01 254.61 160.66 259.26 165.07 258.49"
/>
<path stroke="#e4f2e6" vector-effect="non-scaling-stroke" d="
  M 165.07 258.49
  Q 168.15 269.38 176.35 277.50"
/>
<path stroke="#afdeb8" vector-effect="non-scaling-stroke" d="
  M 176.35 277.50
  Q 175.68 278.97 176.25 279.75
  Q 177.27 281.15 178.33 279.47"
/>
<path stroke="#e4f2e6" vector-effect="non-scaling-stroke" d="
  M 178.33 279.47
  C 196.27 293.03 221.12 293.67 237.09 276.25
  C 238.54 274.65 239.56 272.44 241.03 270.65
  C 245.31 265.44 250.28 252.81 248.04 246.21"
/>
<path stroke="#afdeb8" vector-effect="non-scaling-stroke" d="
  M 248.04 246.21
  L 247.91 245.24"
/>
<path stroke="#e4f2e6" vector-effect="non-scaling-stroke" d="
  M 247.91 245.24
  Q 248.79 243.85 248.42 242.18"
/>
<path stroke="#eef7fd" vector-effect="non-scaling-stroke" d="
  M 248.42 242.18
  Q 250.60 240.63 252.98 239.59
  C 255.55 238.47 256.85 237.13 258.74 235.32
  Q 259.11 234.97 259.60 234.87
  L 272.84 232.09"
/>
<path stroke="#bfced7" vector-effect="non-scaling-stroke" d="
  M 272.84 232.09
  L 247.82 342.08"
/>
<path stroke="#fcdfcf" vector-effect="non-scaling-stroke" d="
  M 247.82 342.08
  C 244.13 335.72 241.03 328.83 237.02 322.70
  C 233.00 316.54 228.80 310.95 220.52 314.80"
/>
<path stroke="#e4f2e6" vector-effect="non-scaling-stroke" d="
  M 220.52 314.80
  Q 219.49 312.46 217.90 310.61
  C 206.66 297.57 190.28 291.95 173.59 295.81
  C 144.08 302.62 131.20 337.04 146.81 362.24
  C 163.24 388.74 203.42 389.53 220.77 362.74"
/>
<path stroke="#d8ebf8" vector-effect="non-scaling-stroke" d="
  M 220.77 362.74
  C 221.12 362.99 221.57 363.33 221.77 363.75
  Q 229.03 378.94 235.99 393.66"
/>
<path stroke="#bfced7" vector-effect="non-scaling-stroke" d="
  M 235.99 393.66
  Q 234.76 401.65 230.30 406.82"
/>
<path stroke="#979b9d" vector-effect="non-scaling-stroke" d="
  M 230.30 406.82
  L 223.77 409.13"
/>
<path stroke="#eef7fd" vector-effect="non-scaling-stroke" d="
  M 166.37 224.58
  A 4.25 4.25 0.0 0 0 162.12 220.33
  A 4.25 4.25 0.0 0 0 157.87 224.58
  A 4.25 4.25 0.0 0 0 162.12 228.83
  A 4.25 4.25 0.0 0 0 166.37 224.58"
/>
<path stroke="#eef7fd" vector-effect="non-scaling-stroke" d="
  M 163.5458 270.0695
  A 4.68 4.34 17.4 0 0 160.3778 264.5286
  A 4.68 4.34 17.4 0 0 154.6142 267.2705
  A 4.68 4.34 17.4 0 0 157.7822 272.8114
  A 4.68 4.34 17.4 0 0 163.5458 270.0695"
/>
<path stroke="#afdeb8" vector-effect="non-scaling-stroke" d="
  M 246.00 273.23
  A 2.33 2.33 0.0 0 0 243.67 270.90
  A 2.33 2.33 0.0 0 0 241.34 273.23
  A 2.33 2.33 0.0 0 0 243.67 275.56
  A 2.33 2.33 0.0 0 0 246.00 273.23"
/>
<path stroke="#afdeb8" vector-effect="non-scaling-stroke" d="
  M 226.81 292.98
  A 1.27 1.27 0.0 0 0 225.54 291.71
  A 1.27 1.27 0.0 0 0 224.27 292.98
  A 1.27 1.27 0.0 0 0 225.54 294.25
  A 1.27 1.27 0.0 0 0 226.81 292.98"
/>
<path stroke="#86929b" vector-effect="non-scaling-stroke" d="
  M 282.74 184.13
  Q 282.85 184.83 283.20 184.62"
/>
<path stroke="#aec6d5" vector-effect="non-scaling-stroke" d="
  M 283.20 184.62
  L 272.84 232.09"
/>
<path stroke="#d3eae4" vector-effect="non-scaling-stroke" d="
  M 248.42 242.18
  Q 245.93 222.40 229.38 211.27
  C 228.37 210.59 226.61 210.38 225.72 209.73
  Q 223.79 208.31 223.40 208.13
  Q 215.35 204.54 206.18 203.87"
/>
<path stroke="#9ed6b6" vector-effect="non-scaling-stroke" d="
  M 206.18 203.87
  Q 204.92 202.26 203.51 202.66"
/>
<path stroke="#43474a" vector-effect="non-scaling-stroke" d="
  M 284.06 218.24
  Q 282.64 218.68 283.08 221.04"
/>
<path stroke="#957b6d" vector-effect="non-scaling-stroke" d="
  M 283.24 221.76
  Q 282.67 221.81 282.63 223.73"
/>
<path stroke="#936652" vector-effect="non-scaling-stroke" d="
  M 282.63 223.73
  L 273.19 265.05"
/>
<path stroke="#957b6d" vector-effect="non-scaling-stroke" d="
  M 269.91 280.01
  L 268.78 282.99"
/>
<path stroke="#43474a" vector-effect="non-scaling-stroke" d="
  M 268.78 282.99
  Q 267.48 283.19 267.15 283.92
  Q 263.05 293.00 264.11 302.78"
/>
<path stroke="#957b6d" vector-effect="non-scaling-stroke" d="
  M 264.11 302.78
  L 262.05 312.88"
/>
<path stroke="#936652" vector-effect="non-scaling-stroke" d="
  M 261.63 314.96
  Q 261.01 315.58 260.59 317.54"
/>
<path stroke="#43474a" vector-effect="non-scaling-stroke" d="
  M 260.59 317.54
  Q 253.74 327.91 255.42 340.66"
/>
<path stroke="#936652" vector-effect="non-scaling-stroke" d="
  M 255.42 340.66
  Q 255.09 344.05 254.06 347.77
  Q 253.84 348.52 254.33 349.42"
/>
<path stroke="#576a75" vector-effect="non-scaling-stroke" d="
  M 253.97 349.74
  Q 253.38 349.74 252.53 350.32"
/>
<path stroke="#957b6d" vector-effect="non-scaling-stroke" d="
  M 252.53 350.32
  L 250.69 346.75"
/>
<path stroke="#576a75" vector-effect="non-scaling-stroke" d="
  M 250.69 346.75
  Q 267.88 272.93 284.54 199.01
  Q 286.23 191.50 283.20 184.62"
/>
<path stroke="#bdaea7" vector-effect="non-scaling-stroke" d="
  M 250.69 346.75
  L 247.82 342.08"
/>
<path stroke="#94d19e" vector-effect="non-scaling-stroke" d="
  M 206.18 203.87
  C 207.55 207.62 201.93 208.95 201.71 204.32"
/>
<path stroke="#94d19e" vector-effect="non-scaling-stroke" d="
  M 247.91 245.24
  Q 247.20 243.07 244.83 243.56
  A 2.08 2.08 0.0 0 0 243.28 246.23
  C 244.04 248.60 247.50 248.66 248.04 246.21"
/>
<path stroke="#94d19e" vector-effect="non-scaling-stroke" d="
  M 178.33 279.47
  Q 178.55 278.03 176.35 277.50"
/>
<path stroke="#94d19e" vector-effect="non-scaling-stroke" d="
  M 165.07 258.49
  C 167.25 258.37 167.09 254.21 163.95 254.01"
/>
<path stroke="#94d19e" vector-effect="non-scaling-stroke" d="
  M 170.54 221.71
  Q 172.98 222.15 172.78 220.25"
/>
<path stroke="#94d19e" vector-effect="non-scaling-stroke" d="
  M 225.5023 210.4000
  A 1.31 1.02 -44.0 0 0 223.8514 210.5763
  A 1.31 1.02 -44.0 0 0 223.6177 212.2200
  A 1.31 1.02 -44.0 0 0 225.2686 212.0437
  A 1.31 1.02 -44.0 0 0 225.5023 210.4000"
/>
<path stroke="#909f93" vector-effect="non-scaling-stroke" d="
  M 197.38 235.25
  L 197.01 237.80"
/>
<path stroke="#e2d2b6" vector-effect="non-scaling-stroke" d="
  M 197.01 237.80
  C 193.31 239.96 196.27 243.13 195.08 245.52"
/>
<path stroke="#909f93" vector-effect="non-scaling-stroke" d="
  M 195.08 245.52
  Q 192.91 251.19 195.92 257.37"
/>
<path stroke="#a9d1da" vector-effect="non-scaling-stroke" d="
  M 195.92 257.37
  C 195.44 259.32 192.38 259.19 190.80 258.32
  C 188.83 257.22 170.21 248.17 172.45 256.75
  Q 176.17 270.97 190.07 278.78"
/>
<path stroke="#bddedf" vector-effect="non-scaling-stroke" d="
  M 190.07 278.78
  C 201.89 285.13 216.09 283.41 227.27 275.91"
/>
<path stroke="#d3eae4" vector-effect="non-scaling-stroke" d="
  M 227.27 275.91
  Q 231.88 272.08 235.70 266.47
  C 239.77 260.48 242.28 252.70 241.68 245.77
  C 240.21 228.84 226.86 213.24 208.76 212.46
  C 191.85 211.73 176.12 221.66 172.30 238.76
  C 171.77 241.11 170.33 242.82 169.89 245.28
  A 0.99 0.98 37.3 0 0 169.98 245.93
  L 171.62 249.29
  Q 171.76 249.57 172.02 249.40
  L 194.69 235.01
  Q 195.14 234.72 195.66 234.84
  L 197.38 235.25"
/>
<path stroke="#c7e2f6" vector-effect="non-scaling-stroke" d="
  M 227.27 275.91
  Q 221.78 267.98 212.83 264.08"
/>
<path stroke="#b3d6f1" vector-effect="non-scaling-stroke" d="
  M 212.83 264.08
  Q 213.28 262.76 213.27 262.20
  A 0.73 0.73 0.0 0 0 212.28 261.54
  L 204.62 264.49
  Q 204.14 264.68 203.67 264.45
  Q 201.07 263.17 200.85 260.21"
/>
<path stroke="#9aa3aa" vector-effect="non-scaling-stroke" d="
  M 200.85 260.21
  C 208.31 259.60 214.55 259.46 216.53 250.88"
/>
<path stroke="#ecd7cd" vector-effect="non-scaling-stroke" d="
  M 216.53 250.88
  Q 217.18 250.41 217.52 249.51"
/>
<path stroke="#9aa3aa" vector-effect="non-scaling-stroke" d="
  M 217.52 249.51
  Q 217.98 249.92 218.39 249.15
  C 221.28 243.78 227.32 233.89 219.68 229.29
  Q 215.67 226.87 213.64 224.66
  Q 213.32 224.32 212.93 224.56
  Q 212.27 224.95 211.57 224.71"
/>
<path stroke="#aec6d5" vector-effect="non-scaling-stroke" d="
  M 211.57 224.71
  Q 210.34 221.07 206.91 221.49
  A 0.75 0.74 1.0 0 0 206.27 222.10
  Q 205.89 224.38 203.61 224.76
  Q 203.07 224.85 202.71 225.26
  Q 200.45 227.76 199.32 231.82"
/>
<path stroke="#9aa3aa" vector-effect="non-scaling-stroke" d="
  M 199.32 231.82
  Q 198.19 232.82 197.38 235.25"
/>
<path stroke="#708ba0" vector-effect="non-scaling-stroke" d="
  M 200.85 260.21
  Q 197.78 260.26 195.92 257.37"
/>
<path stroke="#a98c7c" vector-effect="non-scaling-stroke" d="
  M 217.52 249.51
  C 218.80 245.32 216.91 243.77 217.27 239.83
  Q 217.31 239.31 216.86 239.05
  C 211.95 236.32 206.65 237.01 202.32 233.72
  Q 201.94 233.42 201.45 233.49
  C 198.98 233.85 198.62 236.59 197.01 237.80"
/>
<path stroke="#9dcaec" vector-effect="non-scaling-stroke" d="
  M 212.83 264.08
  Q 209.51 267.53 204.90 270.14
  C 199.35 273.28 195.18 276.22 190.07 278.78"
/>
<path stroke="#a98c7c" vector-effect="non-scaling-stroke" d="
  M 216.53 250.88
  Q 213.22 251.20 210.43 252.91
  A 2.18 2.17 59.5 0 1 207.40 252.12
  Q 204.05 246.18 197.11 247.98
  Q 196.55 248.12 196.26 247.62
  L 195.08 245.52"
/>
<path stroke="#6b7b84" vector-effect="non-scaling-stroke" d="
  M 211.57 224.71
  L 199.32 231.82"
/>
<path stroke="#f8aa85" vector-effect="non-scaling-stroke" d="
  M 139.65 221.60
  Q 138.41 222.98 137.79 225.76
  Q 132.86 247.82 127.35 270.63
  A 0.66 0.66 0.0 0 0 128.61 271.00
  Q 128.98 269.95 130.00 269.52"
/>
<path stroke="#f8aa85" vector-effect="non-scaling-stroke" d="
  M 121.51 291.34
  C 117.87 293.23 118.12 298.47 117.37 301.37
  Q 107.12 340.97 96.78 380.56
  C 93.66 392.47 103.06 395.98 111.77 398.18
  Q 135.73 404.25 159.77 410.35
  A 0.34 0.34 0.0 0 1 159.75 411.02
  Q 148.07 413.33 136.03 413.24
  C 130.57 413.20 124.09 412.39 119.06 414.30
  C 113.58 416.37 108.91 424.85 105.75 429.98"
/>
<path stroke="#f9b65d" vector-effect="non-scaling-stroke" d="
  M 105.75 429.98
  Q 62.84 397.77 45.83 385.42
  Q 42.38 382.91 41.33 381.34"
/>
<path stroke="#f8aa85" vector-effect="non-scaling-stroke" d="
  M 278.79 259.61
  L 287.18 224.19
  A 0.80 0.80 0.0 0 0 286.29 223.21
  L 282.63 223.73"
/>
<path stroke="#a98c7c" vector-effect="non-scaling-stroke" d="
  M 198.8980 243.5478
  A 1.84 0.80 102.3 0 0 200.0716 241.9204
  A 1.84 0.80 102.3 0 0 199.6820 239.9522
  A 1.84 0.80 102.3 0 0 198.5084 241.5796
  A 1.84 0.80 102.3 0 0 198.8980 243.5478"
/>
<path stroke="#a98c7c" vector-effect="non-scaling-stroke" d="
  M 208.6450 245.7170
  A 1.79 0.86 96.9 0 0 209.7138 244.0433
  A 1.79 0.86 96.9 0 0 209.0750 242.1630
  A 1.79 0.86 96.9 0 0 208.0062 243.8367
  A 1.79 0.86 96.9 0 0 208.6450 245.7170"
/>
<path stroke="#abacac" vector-effect="non-scaling-stroke" d="
  M 204.12 250.20
  L 199.28 248.85
  A 0.26 0.26 0.0 0 0 198.96 249.03
  L 198.92 249.16
  A 2.59 2.56 15.6 0 0 200.73 252.33
  L 201.08 252.42
  A 2.59 2.56 15.6 0 0 204.26 250.65
  L 204.30 250.52
  A 0.26 0.26 0.0 0 0 204.12 250.20"
/>
<path stroke="#eef7fd" vector-effect="non-scaling-stroke" d="
  M 161.65 267.97
  A 2.51 2.51 0.0 0 0 159.14 265.46
  A 2.51 2.51 0.0 0 0 156.63 267.97
  A 2.51 2.51 0.0 0 0 159.14 270.48
  A 2.51 2.51 0.0 0 0 161.65 267.97"
/>
<path stroke="#a98c7c" vector-effect="non-scaling-stroke" d="
  M 264.11 302.78
  L 268.78 282.99"
/>
<path stroke="#fcdfcf" vector-effect="non-scaling-stroke" d="
  M 279.85 286.40
  L 276.42 297.67
  A 0.18 0.18 0.0 0 0 276.54 297.89
  L 276.59 297.91
  A 5.02 3.61 -73.1 0 0 281.50 294.15
  L 282.11 292.14
  A 5.02 3.61 -73.1 0 0 280.12 286.29
  L 280.07 286.28
  A 0.18 0.18 0.0 0 0 279.85 286.40"
/>
<path stroke="#936652" vector-effect="non-scaling-stroke" d="
  M 106.66 371.89
  Q 106.56 384.33 114.74 390.03
  Q 118.24 392.48 129.29 395.02
  Q 160.71 402.25 192.15 409.36
  Q 192.68 409.48 192.58 410.02
  L 192.49 410.46"
/>
<path stroke="#f7a142" vector-effect="non-scaling-stroke" d="
  M 111.82 435.30
  Q 109.91 434.36 109.52 432.86
  Q 109.39 432.38 108.97 432.10
  L 105.75 429.98"
/>
<path stroke="#e2d2b6" vector-effect="non-scaling-stroke" d="
  M 220.52 314.80
  Q 217.27 318.31 217.37 322.23"
/>
<path stroke="#e0bd9b" vector-effect="non-scaling-stroke" d="
  M 217.37 322.23
  L 217.73 329.08"
/>
<path stroke="#a7d7c7" vector-effect="non-scaling-stroke" d="
  M 217.73 329.08
  Q 212.03 332.91 213.44 340.31
  Q 215.61 351.77 220.84 361.54"
/>
<path stroke="#bddedf" vector-effect="non-scaling-stroke" d="
  M 220.84 361.54
  Q 220.67 362.02 220.77 362.74"
/>
<path stroke="#94d19e" vector-effect="non-scaling-stroke" d="
  M 211.89 338.58
  A 27.90 27.90 0.0 0 0 183.99 310.68
  A 27.90 27.90 0.0 0 0 156.09 338.58
  A 27.90 27.90 0.0 0 0 183.99 366.48
  A 27.90 27.90 0.0 0 0 211.89 338.58"
/>
<path stroke="#afdeb8" vector-effect="non-scaling-stroke" d="
  M 172.85 344.40
  L 170.67 348.24
  A 0.70 0.69 14.8 0 0 171.28 349.28
  Q 174.70 349.25 177.88 348.68
  C 180.75 348.16 183.00 348.39 185.75 348.49
  C 196.28 348.89 202.59 338.94 193.90 330.90
  C 188.37 325.80 175.50 323.74 170.80 331.59
  C 168.30 335.75 169.41 340.14 172.72 343.42
  Q 173.16 343.86 172.85 344.40"
/>
<path stroke="#bdaea7" vector-effect="non-scaling-stroke" d="
  M 252.53 350.32
  Q 252.79 350.79 253.58 351.24"
/>
<path stroke="#f8aa85" vector-effect="non-scaling-stroke" d="
  M 274.60 390.11
  Q 274.46 389.92 274.48 390.33
  Q 274.49 390.50 274.65 390.54
  Q 277.84 391.34 279.27 388.79
  C 281.68 384.45 286.28 382.69 290.72 381.54
  C 294.41 380.58 298.15 381.65 301.88 382.38
  C 304.27 382.85 304.92 382.00 306.67 380.64
  C 311.63 376.79 320.07 379.76 325.44 381.56
  Q 325.88 381.70 326.34 381.63
  L 327.87 381.40"
/>
<path stroke="#f8aa85" vector-effect="non-scaling-stroke" d="
  M 328.57 381.86
  Q 328.33 382.38 328.45 382.63
  A 1.73 1.73 0.0 0 0 330.72 383.51
  C 339.07 379.88 346.84 385.17 352.26 391.29
  Q 352.63 391.71 353.11 391.41
  L 354.33 390.65"
/>
<path stroke="#f8aa85" vector-effect="non-scaling-stroke" d="
  M 315.16 538.00
  Q 307.10 519.78 303.44 513.80
  Q 299.78 507.82 297.98 506.98
  Q 289.64 503.07 281.54 498.67
  C 278.37 496.95 274.32 495.56 270.95 493.60
  Q 264.80 490.01 263.34 489.27
  C 259.42 487.29 255.60 485.65 252.56 482.21
  Q 246.51 475.36 238.56 470.70
  Q 238.15 470.46 237.77 470.73
  Q 236.97 471.30 236.01 471.06"
/>
<path stroke="#fcdfcf" vector-effect="non-scaling-stroke" d="
  M 205.24 451.13
  Q 207.16 449.69 205.07 448.16
  Q 201.10 445.27 196.99 442.10
  A 0.59 0.58 -70.4 0 0 196.05 442.55
  Q 196.03 443.18 195.79 442.91"
/>
<path stroke="#f8aa85" vector-effect="non-scaling-stroke" d="
  M 253.71 451.17
  L 253.83 452.38
  Q 253.88 452.84 254.34 452.81
  L 259.74 452.46
  A 2.69 2.68 3.0 0 0 262.21 450.24
  C 262.78 447.02 263.13 443.94 262.86 440.58
  C 261.33 421.21 255.15 402.78 246.93 384.93
  C 241.51 373.15 233.62 359.66 226.89 347.11
  C 223.65 341.09 219.93 333.20 218.66 326.54
  Q 218.23 324.33 217.37 322.23"
/>
<path stroke="#fcdfcf" vector-effect="non-scaling-stroke" d="
  M 220.85 319.59
  C 220.19 322.83 224.68 327.67 227.80 326.16
  C 230.94 324.65 229.81 318.00 227.44 316.36
  C 224.89 314.59 221.38 317.01 220.85 319.59"
/>
<path stroke="#f8aa85" vector-effect="non-scaling-stroke" d="
  M 261.89 316.68
  C 262.64 325.06 264.40 331.35 269.10 338.43
  Q 269.25 338.65 269.25 338.92
  Q 269.25 339.07 269.25 339.22
  Q 269.26 339.67 269.70 339.76
  Q 269.90 339.79 270.16 339.85"
/>
<path stroke="#a77762" vector-effect="non-scaling-stroke" d="
  M 255.42 340.66
  Q 259.01 329.32 260.59 317.54"
/>
<path stroke="#fcdfcf" vector-effect="non-scaling-stroke" d="
  M 274.53 323.99
  Q 274.21 322.80 272.99 322.66
  A 1.98 1.97 -80.6 0 0 270.82 324.22
  L 269.04 332.79
  A 1.47 1.47 0.0 0 0 271.69 333.92
  Q 274.57 329.72 275.30 324.67
  Q 275.31 324.60 275.25 324.58
  Q 275.12 324.54 275.00 324.50
  Q 274.63 324.36 274.53 323.99"
/>
<path stroke="#936652" vector-effect="non-scaling-stroke" d="
  M 244.38 390.80
  Q 245.54 386.40 242.43 383.00"
/>
<path stroke="#bb998d" vector-effect="non-scaling-stroke" d="
  M 242.43 383.00
  Q 241.50 378.99 239.46 377.72"
/>
<path stroke="#d4b6ae" vector-effect="non-scaling-stroke" d="
  M 239.46 377.72
  L 226.87 351.81"
/>
<path stroke="#beaf96" vector-effect="non-scaling-stroke" d="
  M 226.87 351.81
  Q 221.28 341.24 217.73 329.08"
/>
<path stroke="#afdeb8" vector-effect="non-scaling-stroke" d="
  M 178.95 336.12
  A 1.80 1.80 0.0 0 0 177.15 334.32
  A 1.80 1.80 0.0 0 0 175.35 336.12
  A 1.80 1.80 0.0 0 0 177.15 337.92
  A 1.80 1.80 0.0 0 0 178.95 336.12"
/>
<path stroke="#afdeb8" vector-effect="non-scaling-stroke" d="
  M 185.51 337.69
  A 1.82 1.82 0.0 0 0 183.69 335.87
  A 1.82 1.82 0.0 0 0 181.87 337.69
  A 1.82 1.82 0.0 0 0 183.69 339.51
  A 1.82 1.82 0.0 0 0 185.51 337.69"
/>
<path stroke="#afdeb8" vector-effect="non-scaling-stroke" d="
  M 191.98 339.28
  A 1.79 1.79 0.0 0 0 190.19 337.49
  A 1.79 1.79 0.0 0 0 188.40 339.28
  A 1.79 1.79 0.0 0 0 190.19 341.07
  A 1.79 1.79 0.0 0 0 191.98 339.28"
/>
<path stroke="#9bcfda" vector-effect="non-scaling-stroke" d="
  M 226.87 351.81
  Q 224.39 355.32 222.47 360.19
  Q 221.98 361.44 220.84 361.54"
/>
<path stroke="#98bad0" vector-effect="non-scaling-stroke" d="
  M 239.46 377.72
  L 235.99 393.66"
/>
<path stroke="#576a75" vector-effect="non-scaling-stroke" d="
  M 230.30 406.82
  C 239.67 401.54 240.21 392.36 242.43 383.00"
/>
<path stroke="#f7a142" vector-effect="non-scaling-stroke" d="
  M 94.56 459.17
  Q 67.74 436.42 40.44 414.12
  C 36.84 411.18 31.27 404.33 26.83 404.99"
/>
<path stroke="#f9b65d" vector-effect="non-scaling-stroke" d="
  M 26.83 404.99
  Q 25.64 402.77 26.63 402.65"
/>
<path stroke="#fbd68d" vector-effect="non-scaling-stroke" d="
  M 26.63 402.65
  L 39.92 389.21
  A 1.03 1.02 -49.1 0 1 41.26 389.11
  L 104.35 435.22
  Q 104.73 435.50 104.68 435.03
  Q 104.63 434.64 104.19 434.31
  Q 72.01 409.75 40.51 385.02
  A 1.04 1.03 42.6 0 0 39.18 385.07
  L 23.09 399.62"
/>
<path stroke="#f9b65d" vector-effect="non-scaling-stroke" d="
  M 23.09 399.62
  Q 22.49 399.37 21.17 399.56"
/>
<path stroke="#fcdfcf" vector-effect="non-scaling-stroke" d="
  M 26.63 402.65
  Q 23.45 401.46 23.09 399.62"
/>
<path stroke="#f8aa85" vector-effect="non-scaling-stroke" d="
  M 26.83 404.99
  L 85.28 457.80
  A 0.95 0.95 0.0 0 1 85.42 459.04
  Q 62.36 492.79 39.62 527.10
  Q 35.19 533.78 33.19 538.00"
/>
</g>
<path fill="#5fbd70" d="
  M 131.76 116.59
  C 129.56 113.09 125.91 111.27 123.75 107.84
  A 0.83 0.83 0.0 0 1 124.22 106.60
  L 150.52 99.02
  A 0.82 0.82 0.0 0 1 151.54 99.61
  L 159.15 130.23
  Q 159.26 130.68 159.54 131.04
  C 160.67 132.56 160.06 134.02 158.33 134.64
  C 155.53 135.66 152.49 137.57 149.46 137.48
  Q 148.94 137.47 148.59 137.07
  C 142.88 130.62 136.34 123.85 131.76 116.59
  Z"
/>
<path fill="#5fbd70" d="
  M 184.91 116.48
  L 178.37 136.00
  A 1.12 1.12 0.0 0 1 177.35 136.76
  L 169.38 137.08
  A 1.12 1.12 0.0 0 1 168.21 135.98
  L 167.88 113.74
  A 1.12 1.12 0.0 0 1 169.18 112.61
  L 184.03 115.02
  A 1.12 1.12 0.0 0 1 184.91 116.48
  Z"
/>
<circle fill="#5fbd70" cx="237.31" cy="135.38" r="4.99"/>
<path fill="#5fbd70" d="
  M 141.70 150.44
  L 136.51 154.08
  A 0.76 0.76 0.0 0 1 135.79 154.17
  L 116.32 146.38
  A 0.76 0.76 0.0 0 1 116.01 145.20
  L 125.66 132.93
  A 0.76 0.76 0.0 0 1 126.81 132.89
  L 141.83 149.30
  A 0.76 0.76 0.0 0 1 141.70 150.44
  Z"
/>
<path fill="#5fbd70" d="
  M 298.04 162.26
  Q 298.10 160.40 295.94 160.23
  Q 295.51 159.18 295.78 158.00
  Q 297.61 150.05 299.92 141.44
  A 0.66 0.66 0.0 0 1 300.79 140.99
  L 310.75 144.71
  A 1.34 1.34 0.0 0 1 311.29 146.85
  Q 305.18 153.91 301.85 162.60
  A 0.97 0.96 7.3 0 1 301.04 163.22
  Q 299.26 163.41 298.04 162.26
  Z"
/>
<circle fill="#5fbd70" cx="278.50" cy="148.15" r="2.56"/>
<path fill="#5fbd70" d="
  M 323.19 147.69
  C 325.31 145.44 327.96 147.05 329.14 149.47
  Q 332.44 156.20 335.67 162.80
  A 1.19 1.19 0.0 0 1 334.76 164.50
  Q 330.30 165.11 326.70 167.76
  A 2.23 2.21 22.6 0 1 325.72 168.16
  C 319.53 169.06 313.76 173.28 307.79 173.25
  A 1.20 1.19 65.5 0 1 307.00 172.95
  C 304.11 170.43 301.86 166.50 305.58 163.54
  Q 305.96 163.24 306.42 163.12
  Q 308.18 162.68 307.88 160.63
  Q 307.79 159.99 308.44 160.00
  C 309.81 160.03 309.98 160.21 311.08 159.33
  Q 315.71 155.61 323.19 147.69
  Z"
/>
<path fill="#575859" d="
  M 288.93 182.49
  Q 285.53 175.82 280.10 172.20
  A 0.88 0.87 -2.0 0 0 278.92 173.46
  Q 282.23 177.68 282.74 184.13
  Q 278.40 177.04 271.50 175.50
  Q 246.24 169.88 220.99 163.98
  Q 201.41 159.52 181.76 155.02
  Q 175.75 153.65 172.12 154.17
  C 161.07 155.78 157.65 163.48 155.28 174.04
  Q 134.31 267.42 112.56 360.59
  C 110.36 369.98 110.70 378.80 118.83 384.39
  Q 122.34 386.80 132.69 389.15
  Q 174.21 398.58 215.68 408.09
  Q 219.63 409.00 223.77 409.13
  Q 219.15 410.78 213.01 409.65
  C 200.95 407.42 188.91 404.23 178.27 402.05
  C 169.00 400.14 159.18 397.56 150.64 395.69
  Q 134.14 392.08 117.77 387.91
  C 112.00 386.44 108.65 377.73 108.17 372.51
  Q 108.13 372.06 107.69 372.01
  L 106.66 371.89
  L 122.71 301.75
  L 129.07 273.95
  L 130.00 269.52
  L 140.83 222.02
  Q 147.60 192.53 154.25 163.00
  C 156.63 152.43 166.53 144.94 177.80 147.48
  Q 225.40 158.23 272.97 169.11
  C 281.26 171.01 286.50 174.45 288.93 182.49
  Z"
/>
<path fill="#feffff" d="
  M 220.99 163.98
  Q 220.95 166.68 218.94 167.93
  Q 204.76 176.78 192.09 185.15
  Q 189.75 186.69 191.88 188.51
  Q 197.94 193.68 203.53 198.70
  Q 204.42 199.49 203.59 200.66
  Q 203.38 200.94 203.73 200.99
  L 204.21 201.05
  A 0.14 0.14 0.0 0 1 204.25 201.31
  Q 203.01 201.90 203.51 202.66
  L 201.71 204.32
  C 193.40 205.40 177.65 211.37 173.55 219.94
  A 0.57 0.56 -77.7 0 1 173.06 220.26
  Q 172.93 220.26 172.78 220.25
  Q 172.26 219.26 171.01 219.40
  A 1.11 1.10 -1.5 0 0 170.02 220.44
  Q 169.99 221.10 170.54 221.71
  C 170.52 222.59 170.61 223.15 170.12 223.93
  Q 161.43 237.65 163.95 254.01
  C 161.01 254.61 160.66 259.26 165.07 258.49
  Q 168.15 269.38 176.35 277.50
  Q 175.68 278.97 176.25 279.75
  Q 177.27 281.15 178.33 279.47
  C 196.27 293.03 221.12 293.67 237.09 276.25
  C 238.54 274.65 239.56 272.44 241.03 270.65
  C 245.31 265.44 250.28 252.81 248.04 246.21
  L 247.91 245.24
  Q 248.79 243.85 248.42 242.18
  Q 250.60 240.63 252.98 239.59
  C 255.55 238.47 256.85 237.13 258.74 235.32
  Q 259.11 234.97 259.60 234.87
  L 272.84 232.09
  L 247.82 342.08
  C 244.13 335.72 241.03 328.83 237.02 322.70
  C 233.00 316.54 228.80 310.95 220.52 314.80
  Q 219.49 312.46 217.90 310.61
  C 206.66 297.57 190.28 291.95 173.59 295.81
  C 144.08 302.62 131.20 337.04 146.81 362.24
  C 163.24 388.74 203.42 389.53 220.77 362.74
  C 221.12 362.99 221.57 363.33 221.77 363.75
  Q 229.03 378.94 235.99 393.66
  Q 234.76 401.65 230.30 406.82
  L 223.77 409.13
  Q 219.63 409.00 215.68 408.09
  Q 174.21 398.58 132.69 389.15
  Q 122.34 386.80 118.83 384.39
  C 110.70 378.80 110.36 369.98 112.56 360.59
  Q 134.31 267.42 155.28 174.04
  C 157.65 163.48 161.07 155.78 172.12 154.17
  Q 175.75 153.65 181.76 155.02
  Q 201.41 159.52 220.99 163.98
  Z
  M 166.37 224.58
  A 4.25 4.25 0.0 0 0 162.12 220.33
  A 4.25 4.25 0.0 0 0 157.87 224.58
  A 4.25 4.25 0.0 0 0 162.12 228.83
  A 4.25 4.25 0.0 0 0 166.37 224.58
  Z
  M 163.5458 270.0695
  A 4.68 4.34 17.4 0 0 160.3778 264.5286
  A 4.68 4.34 17.4 0 0 154.6142 267.2705
  A 4.68 4.34 17.4 0 0 157.7822 272.8114
  A 4.68 4.34 17.4 0 0 163.5458 270.0695
  Z
  M 246.00 273.23
  A 2.33 2.33 0.0 0 0 243.67 270.90
  A 2.33 2.33 0.0 0 0 241.34 273.23
  A 2.33 2.33 0.0 0 0 243.67 275.56
  A 2.33 2.33 0.0 0 0 246.00 273.23
  Z
  M 226.81 292.98
  A 1.27 1.27 0.0 0 0 225.54 291.71
  A 1.27 1.27 0.0 0 0 224.27 292.98
  A 1.27 1.27 0.0 0 0 225.54 294.25
  A 1.27 1.27 0.0 0 0 226.81 292.98
  Z"
/>
<path fill="#c9e5cc" d="
  M 295.94 160.23
  Q 298.10 160.40 298.04 162.26
  L 296.59 161.90
  Q 296.07 161.78 296.03 161.25
  L 295.94 160.23
  Z"
/>
<path fill="#ddeefb" d="
  M 220.99 163.98
  Q 246.24 169.88 271.50 175.50
  Q 278.40 177.04 282.74 184.13
  Q 282.85 184.83 283.20 184.62
  L 272.84 232.09
  L 259.60 234.87
  Q 259.11 234.97 258.74 235.32
  C 256.85 237.13 255.55 238.47 252.98 239.59
  Q 250.60 240.63 248.42 242.18
  Q 245.93 222.40 229.38 211.27
  C 228.37 210.59 226.61 210.38 225.72 209.73
  Q 223.79 208.31 223.40 208.13
  Q 215.35 204.54 206.18 203.87
  Q 204.92 202.26 203.51 202.66
  Q 203.01 201.90 204.25 201.31
  A 0.14 0.14 0.0 0 0 204.21 201.05
  L 203.73 200.99
  Q 203.38 200.94 203.59 200.66
  Q 204.42 199.49 203.53 198.70
  Q 197.94 193.68 191.88 188.51
  Q 189.75 186.69 192.09 185.15
  Q 204.76 176.78 218.94 167.93
  Q 220.95 166.68 220.99 163.98
  Z"
/>
<path fill="#2f363a" d="
  M 288.93 182.49
  Q 290.90 187.59 289.31 194.81
  Q 286.73 206.58 284.06 218.24
  Q 282.64 218.68 283.08 221.04
  Q 282.87 221.11 283.24 221.76
  Q 282.67 221.81 282.63 223.73
  L 273.19 265.05
  L 269.91 280.01
  L 268.78 282.99
  Q 267.48 283.19 267.15 283.92
  Q 263.05 293.00 264.11 302.78
  L 262.05 312.88
  Q 262.19 314.37 261.63 314.96
  Q 261.01 315.58 260.59 317.54
  Q 253.74 327.91 255.42 340.66
  Q 255.09 344.05 254.06 347.77
  Q 253.84 348.52 254.33 349.42
  Q 254.40 348.99 253.97 349.74
  Q 253.38 349.74 252.53 350.32
  L 250.69 346.75
  Q 267.88 272.93 284.54 199.01
  Q 286.23 191.50 283.20 184.62
  Q 282.85 184.83 282.74 184.13
  Q 282.23 177.68 278.92 173.46
  A 0.88 0.87 -2.0 0 1 280.10 172.20
  Q 285.53 175.82 288.93 182.49
  Z"
/>
<path fill="#7f9daf" d="
  M 283.20 184.62
  Q 286.23 191.50 284.54 199.01
  Q 267.88 272.93 250.69 346.75
  L 247.82 342.08
  L 272.84 232.09
  L 283.20 184.62
  Z"
/>
<path fill="#5fbd70" d="
  M 206.18 203.87
  C 207.55 207.62 201.93 208.95 201.71 204.32
  L 203.51 202.66
  Q 204.92 202.26 206.18 203.87
  Z"
/>
<path fill="#c9e5cc" d="
  M 206.18 203.87
  Q 215.35 204.54 223.40 208.13
  Q 223.79 208.31 225.72 209.73
  C 226.61 210.38 228.37 210.59 229.38 211.27
  Q 245.93 222.40 248.42 242.18
  Q 248.79 243.85 247.91 245.24
  Q 247.20 243.07 244.83 243.56
  A 2.08 2.08 0.0 0 0 243.28 246.23
  C 244.04 248.60 247.50 248.66 248.04 246.21
  C 250.28 252.81 245.31 265.44 241.03 270.65
  C 239.56 272.44 238.54 274.65 237.09 276.25
  C 221.12 293.67 196.27 293.03 178.33 279.47
  Q 178.55 278.03 176.35 277.50
  Q 168.15 269.38 165.07 258.49
  C 167.25 258.37 167.09 254.21 163.95 254.01
  Q 161.43 237.65 170.12 223.93
  C 170.61 223.15 170.52 222.59 170.54 221.71
  Q 172.98 222.15 172.78 220.25
  Q 172.93 220.26 173.06 220.26
  A 0.57 0.56 -77.7 0 0 173.55 219.94
  C 177.65 211.37 193.40 205.40 201.71 204.32
  C 201.93 208.95 207.55 207.62 206.18 203.87
  Z
  M 225.5023 210.4000
  A 1.31 1.02 -44.0 0 0 223.8514 210.5763
  A 1.31 1.02 -44.0 0 0 223.6177 212.2200
  A 1.31 1.02 -44.0 0 0 225.2686 212.0437
  A 1.31 1.02 -44.0 0 0 225.5023 210.4000
  Z
  M 197.38 235.25
  L 197.01 237.80
  C 193.31 239.96 196.27 243.13 195.08 245.52
  Q 192.91 251.19 195.92 257.37
  C 195.44 259.32 192.38 259.19 190.80 258.32
  C 188.83 257.22 170.21 248.17 172.45 256.75
  Q 176.17 270.97 190.07 278.78
  C 201.89 285.13 216.09 283.41 227.27 275.91
  Q 231.88 272.08 235.70 266.47
  C 239.77 260.48 242.28 252.70 241.68 245.77
  C 240.21 228.84 226.86 213.24 208.76 212.46
  C 191.85 211.73 176.12 221.66 172.30 238.76
  C 171.77 241.11 170.33 242.82 169.89 245.28
  A 0.99 0.98 37.3 0 0 169.98 245.93
  L 171.62 249.29
  Q 171.76 249.57 172.02 249.40
  L 194.69 235.01
  Q 195.14 234.72 195.66 234.84
  L 197.38 235.25
  Z"
/>
<ellipse fill="#5fbd70" cx="0.00" cy="0.00" transform="translate(224.56,211.31) rotate(-44.0)" rx="1.31" ry="1.02"/>
<path fill="#ddeefb" d="
  M 227.27 275.91
  Q 221.78 267.98 212.83 264.08
  Q 213.28 262.76 213.27 262.20
  A 0.73 0.73 0.0 0 0 212.28 261.54
  L 204.62 264.49
  Q 204.14 264.68 203.67 264.45
  Q 201.07 263.17 200.85 260.21
  C 208.31 259.60 214.55 259.46 216.53 250.88
  Q 217.18 250.41 217.52 249.51
  Q 217.98 249.92 218.39 249.15
  C 221.28 243.78 227.32 233.89 219.68 229.29
  Q 215.67 226.87 213.64 224.66
  Q 213.32 224.32 212.93 224.56
  Q 212.27 224.95 211.57 224.71
  Q 210.34 221.07 206.91 221.49
  A 0.75 0.74 1.0 0 0 206.27 222.10
  Q 205.89 224.38 203.61 224.76
  Q 203.07 224.85 202.71 225.26
  Q 200.45 227.76 199.32 231.82
  Q 198.19 232.82 197.38 235.25
  L 195.66 234.84
  Q 195.14 234.72 194.69 235.01
  L 172.02 249.40
  Q 171.76 249.57 171.62 249.29
  L 169.98 245.93
  A 0.99 0.98 37.3 0 1 169.89 245.28
  C 170.33 242.82 171.77 241.11 172.30 238.76
  C 176.12 221.66 191.85 211.73 208.76 212.46
  C 226.86 213.24 240.21 228.84 241.68 245.77
  C 242.28 252.70 239.77 260.48 235.70 266.47
  Q 231.88 272.08 227.27 275.91
  Z"
/>
<circle fill="#5fbd70" cx="322.17" cy="218.80" r="4.88"/>
<path fill="#fabf9f" d="
  M 139.65 221.60
  Q 138.41 222.98 137.79 225.76
  Q 132.86 247.82 127.35 270.63
  A 0.66 0.66 0.0 0 0 128.61 271.00
  Q 128.98 269.95 130.00 269.52
  L 129.07 273.95
  L 125.10 274.55
  Q 124.66 274.62 124.37 274.96
  C 122.99 276.59 123.43 278.01 123.15 279.55
  Q 122.08 285.46 121.51 291.34
  C 117.87 293.23 118.12 298.47 117.37 301.37
  Q 107.12 340.97 96.78 380.56
  C 93.66 392.47 103.06 395.98 111.77 398.18
  Q 135.73 404.25 159.77 410.35
  A 0.34 0.34 0.0 0 1 159.75 411.02
  Q 148.07 413.33 136.03 413.24
  C 130.57 413.20 124.09 412.39 119.06 414.30
  C 113.58 416.37 108.91 424.85 105.75 429.98
  Q 62.84 397.77 45.83 385.42
  Q 42.38 382.91 41.33 381.34
  C 48.64 372.96 57.65 364.56 61.53 353.79
  C 69.09 332.76 76.19 317.83 84.57 300.10
  C 88.34 292.12 93.76 279.11 99.55 269.56
  Q 104.74 261.01 122.48 232.71
  C 123.03 231.83 123.27 231.29 124.33 230.92
  C 129.98 228.90 132.67 220.78 132.53 215.63
  A 0.50 0.50 0.0 0 1 133.27 215.18
  L 138.82 218.26
  Q 139.30 218.52 139.26 219.07
  Q 139.15 220.55 139.65 221.60
  Z"
/>
<path fill="#575859" d="
  M 284.06 218.24
  Q 284.04 220.18 283.08 221.04
  Q 282.64 218.68 284.06 218.24
  Z"
/>
<path fill="#5fbd70" d="
  M 172.78 220.25
  Q 172.98 222.15 170.54 221.71
  Q 169.99 221.10 170.02 220.44
  A 1.11 1.10 -1.5 0 1 171.01 219.40
  Q 172.26 219.26 172.78 220.25
  Z"
/>
<path fill="#fabf9f" d="
  M 278.79 259.61
  L 287.18 224.19
  A 0.80 0.80 0.0 0 0 286.29 223.21
  L 282.63 223.73
  Q 282.67 221.81 283.24 221.76
  Q 287.64 222.47 291.40 220.13
  Q 291.81 219.87 292.30 219.83
  Q 294.25 219.64 296.20 219.55
  C 302.74 219.25 304.54 225.77 303.46 230.96
  C 301.42 240.75 286.59 253.69 278.79 259.61
  Z"
/>
<circle fill="#ddeefb" cx="162.12" cy="224.58" r="4.25"/>
<path fill="#7f9daf" d="
  M 211.57 224.71
  L 199.32 231.82
  Q 200.45 227.76 202.71 225.26
  Q 203.07 224.85 203.61 224.76
  Q 205.89 224.38 206.27 222.10
  A 0.75 0.74 1.0 0 1 206.91 221.49
  Q 210.34 221.07 211.57 224.71
  Z"
/>
<path fill="#f6956a" d="
  M 139.65 221.60
  Q 140.11 222.10 140.83 222.02
  L 130.00 269.52
  Q 128.98 269.95 128.61 271.00
  A 0.66 0.66 0.0 0 1 127.35 270.63
  Q 132.86 247.82 137.79 225.76
  Q 138.41 222.98 139.65 221.60
  Z"
/>
<path fill="#f6956a" d="
  M 278.79 259.61
  L 277.73 261.61
  Q 277.49 262.05 277.09 262.34
  L 273.19 265.05
  L 282.63 223.73
  L 286.29 223.21
  A 0.80 0.80 0.0 0 1 287.18 224.19
  L 278.79 259.61
  Z"
/>
<path fill="#575859" d="
  M 217.52 249.51
  C 218.80 245.32 216.91 243.77 217.27 239.83
  Q 217.31 239.31 216.86 239.05
  C 211.95 236.32 206.65 237.01 202.32 233.72
  Q 201.94 233.42 201.45 233.49
  C 198.98 233.85 198.62 236.59 197.01 237.80
  L 197.38 235.25
  Q 198.19 232.82 199.32 231.82
  L 211.57 224.71
  Q 212.27 224.95 212.93 224.56
  Q 213.32 224.32 213.64 224.66
  Q 215.67 226.87 219.68 229.29
  C 227.32 233.89 221.28 243.78 218.39 249.15
  Q 217.98 249.92 217.52 249.51
  Z"
/>
<path fill="#fabf9f" d="
  M 217.52 249.51
  Q 217.18 250.41 216.53 250.88
  Q 213.22 251.20 210.43 252.91
  A 2.18 2.17 59.5 0 1 207.40 252.12
  Q 204.05 246.18 197.11 247.98
  Q 196.55 248.12 196.26 247.62
  L 195.08 245.52
  C 196.27 243.13 193.31 239.96 197.01 237.80
  C 198.62 236.59 198.98 233.85 201.45 233.49
  Q 201.94 233.42 202.32 233.72
  C 206.65 237.01 211.95 236.32 216.86 239.05
  Q 217.31 239.31 217.27 239.83
  C 216.91 243.77 218.80 245.32 217.52 249.51
  Z
  M 198.8980 243.5478
  A 1.84 0.80 102.3 0 0 200.0716 241.9204
  A 1.84 0.80 102.3 0 0 199.6820 239.9522
  A 1.84 0.80 102.3 0 0 198.5084 241.5796
  A 1.84 0.80 102.3 0 0 198.8980 243.5478
  Z
  M 208.6450 245.7170
  A 1.79 0.86 96.9 0 0 209.7138 244.0433
  A 1.79 0.86 96.9 0 0 209.0750 242.1630
  A 1.79 0.86 96.9 0 0 208.0062 243.8367
  A 1.79 0.86 96.9 0 0 208.6450 245.7170
  Z"
/>
<ellipse fill="#575859" cx="0.00" cy="0.00" transform="translate(199.29,241.75) rotate(102.3)" rx="1.84" ry="0.80"/>
<ellipse fill="#575859" cx="0.00" cy="0.00" transform="translate(208.86,243.94) rotate(96.9)" rx="1.79" ry="0.86"/>
<path fill="#5fbd70" d="
  M 247.91 245.24
  L 248.04 246.21
  C 247.50 248.66 244.04 248.60 243.28 246.23
  A 2.08 2.08 0.0 0 1 244.83 243.56
  Q 247.20 243.07 247.91 245.24
  Z"
/>
<path fill="#575859" d="
  M 195.08 245.52
  L 196.26 247.62
  Q 196.55 248.12 197.11 247.98
  Q 204.05 246.18 207.40 252.12
  A 2.18 2.17 59.5 0 0 210.43 252.91
  Q 213.22 251.20 216.53 250.88
  C 214.55 259.46 208.31 259.60 200.85 260.21
  Q 197.78 260.26 195.92 257.37
  Q 192.91 251.19 195.08 245.52
  Z
  M 204.12 250.20
  L 199.28 248.85
  A 0.26 0.26 0.0 0 0 198.96 249.03
  L 198.92 249.16
  A 2.59 2.56 15.6 0 0 200.73 252.33
  L 201.08 252.42
  A 2.59 2.56 15.6 0 0 204.26 250.65
  L 204.30 250.52
  A 0.26 0.26 0.0 0 0 204.12 250.20
  Z"
/>
<path fill="#feffff" d="
  M 204.12 250.20
  A 0.26 0.26 0.0 0 1 204.30 250.52
  L 204.26 250.65
  A 2.59 2.56 15.6 0 1 201.08 252.42
  L 200.73 252.33
  A 2.59 2.56 15.6 0 1 198.92 249.16
  L 198.96 249.03
  A 0.26 0.26 0.0 0 1 199.28 248.85
  L 204.12 250.20
  Z"
/>
<path fill="#88bde7" d="
  M 195.92 257.37
  Q 197.78 260.26 200.85 260.21
  Q 201.07 263.17 203.67 264.45
  Q 204.14 264.68 204.62 264.49
  L 212.28 261.54
  A 0.73 0.73 0.0 0 1 213.27 262.20
  Q 213.28 262.76 212.83 264.08
  Q 209.51 267.53 204.90 270.14
  C 199.35 273.28 195.18 276.22 190.07 278.78
  Q 176.17 270.97 172.45 256.75
  C 170.21 248.17 188.83 257.22 190.80 258.32
  C 192.38 259.19 195.44 259.32 195.92 257.37
  Z"
/>
<path fill="#5fbd70" d="
  M 163.95 254.01
  C 167.09 254.21 167.25 258.37 165.07 258.49
  C 160.66 259.26 161.01 254.61 163.95 254.01
  Z"
/>
<path fill="#b1d6f1" d="
  M 212.83 264.08
  Q 221.78 267.98 227.27 275.91
  C 216.09 283.41 201.89 285.13 190.07 278.78
  C 195.18 276.22 199.35 273.28 204.90 270.14
  Q 209.51 267.53 212.83 264.08
  Z"
/>
<path fill="#ddeefb" d="
  M 163.5458 270.0695
  A 4.68 4.34 17.4 0 1 157.7822 272.8114
  A 4.68 4.34 17.4 0 1 154.6142 267.2705
  A 4.68 4.34 17.4 0 1 160.3778 264.5286
  A 4.68 4.34 17.4 0 1 163.5458 270.0695
  Z
  M 161.65 267.97
  A 2.51 2.51 0.0 0 0 159.14 265.46
  A 2.51 2.51 0.0 0 0 156.63 267.97
  A 2.51 2.51 0.0 0 0 159.14 270.48
  A 2.51 2.51 0.0 0 0 161.65 267.97
  Z"
/>
<circle fill="#feffff" cx="159.14" cy="267.97" r="2.51"/>
<circle fill="#5fbd70" cx="318.11" cy="275.05" r="4.90"/>
<circle fill="#5fbd70" cx="243.67" cy="273.23" r="2.33"/>
<path fill="#5fbd70" d="
  M 176.35 277.50
  Q 178.55 278.03 178.33 279.47
  Q 177.27 281.15 176.25 279.75
  Q 175.68 278.97 176.35 277.50
  Z"
/>
<path fill="#fabf9f" d="
  M 262.05 312.88
  L 264.11 302.78
  L 268.78 282.99
  L 269.91 280.01
  L 278.64 280.10
  Q 279.12 280.10 279.24 280.57
  Q 279.45 281.43 280.40 281.70
  Q 280.84 281.83 281.04 282.24
  C 282.62 285.42 285.40 289.65 284.79 293.16
  C 284.19 296.65 282.09 298.59 280.36 301.01
  Q 273.58 310.52 262.05 312.88
  Z
  M 279.85 286.40
  L 276.42 297.67
  A 0.18 0.18 0.0 0 0 276.54 297.89
  L 276.59 297.91
  A 5.02 3.61 -73.1 0 0 281.50 294.15
  L 282.11 292.14
  A 5.02 3.61 -73.1 0 0 280.12 286.29
  L 280.07 286.28
  A 0.18 0.18 0.0 0 0 279.85 286.40
  Z"
/>
<path fill="#575859" d="
  M 268.78 282.99
  L 264.11 302.78
  Q 263.05 293.00 267.15 283.92
  Q 267.48 283.19 268.78 282.99
  Z"
/>
<path fill="#feffff" d="
  M 279.85 286.40
  A 0.18 0.18 0.0 0 1 280.07 286.28
  L 280.12 286.29
  A 5.02 3.61 -73.1 0 1 282.11 292.14
  L 281.50 294.15
  A 5.02 3.61 -73.1 0 1 276.59 297.91
  L 276.54 297.89
  A 0.18 0.18 0.0 0 1 276.42 297.67
  L 279.85 286.40
  Z"
/>
<path fill="#f6956a" d="
  M 121.51 291.34
  L 121.52 301.52
  Q 121.52 302.05 122.06 302.01
  Q 122.42 301.98 122.71 301.75
  L 106.66 371.89
  Q 106.56 384.33 114.74 390.03
  Q 118.24 392.48 129.29 395.02
  Q 160.71 402.25 192.15 409.36
  Q 192.68 409.48 192.58 410.02
  L 192.49 410.46
  L 164.75 415.37
  Q 164.42 415.43 164.15 415.63
  Q 164.03 415.73 163.91 415.82
  A 1.59 1.56 -64.6 0 1 163.01 416.15
  C 155.68 416.56 148.11 418.23 141.29 418.43
  Q 130.81 418.72 126.55 418.57
  Q 119.73 418.31 115.67 424.18
  Q 111.98 429.50 110.56 431.77
  Q 110.28 432.21 110.61 432.62
  Q 111.36 433.55 111.82 435.30
  Q 109.91 434.36 109.52 432.86
  Q 109.39 432.38 108.97 432.10
  L 105.75 429.98
  C 108.91 424.85 113.58 416.37 119.06 414.30
  C 124.09 412.39 130.57 413.20 136.03 413.24
  Q 148.07 413.33 159.75 411.02
  A 0.34 0.34 0.0 0 0 159.77 410.35
  Q 135.73 404.25 111.77 398.18
  C 103.06 395.98 93.66 392.47 96.78 380.56
  Q 107.12 340.97 117.37 301.37
  C 118.12 298.47 117.87 293.23 121.51 291.34
  Z"
/>
<circle fill="#5fbd70" cx="225.54" cy="292.98" r="1.27"/>
<path fill="#c9e5cc" d="
  M 220.52 314.80
  Q 217.27 318.31 217.37 322.23
  L 217.73 329.08
  Q 212.03 332.91 213.44 340.31
  Q 215.61 351.77 220.84 361.54
  Q 220.67 362.02 220.77 362.74
  C 203.42 389.53 163.24 388.74 146.81 362.24
  C 131.20 337.04 144.08 302.62 173.59 295.81
  C 190.28 291.95 206.66 297.57 217.90 310.61
  Q 219.49 312.46 220.52 314.80
  Z
  M 211.89 338.58
  A 27.90 27.90 0.0 0 0 183.99 310.68
  A 27.90 27.90 0.0 0 0 156.09 338.58
  A 27.90 27.90 0.0 0 0 183.99 366.48
  A 27.90 27.90 0.0 0 0 211.89 338.58
  Z"
/>
<path fill="#5fbd70" d="
  M 211.89 338.58
  A 27.90 27.90 0.0 0 1 183.99 366.48
  A 27.90 27.90 0.0 0 1 156.09 338.58
  A 27.90 27.90 0.0 0 1 183.99 310.68
  A 27.90 27.90 0.0 0 1 211.89 338.58
  Z
  M 172.85 344.40
  L 170.67 348.24
  A 0.70 0.69 14.8 0 0 171.28 349.28
  Q 174.70 349.25 177.88 348.68
  C 180.75 348.16 183.00 348.39 185.75 348.49
  C 196.28 348.89 202.59 338.94 193.90 330.90
  C 188.37 325.80 175.50 323.74 170.80 331.59
  C 168.30 335.75 169.41 340.14 172.72 343.42
  Q 173.16 343.86 172.85 344.40
  Z"
/>
<circle fill="#5fbd70" cx="280.90" cy="315.40" r="2.77"/>
<path fill="#fabf9f" d="
  M 247.82 342.08
  L 250.69 346.75
  L 252.53 350.32
  Q 252.79 350.79 253.58 351.24
  Q 253.31 352.39 253.63 353.33
  C 257.84 365.80 267.10 377.55 273.78 389.70
  Q 273.91 389.93 274.60 390.11
  Q 274.46 389.92 274.48 390.33
  Q 274.49 390.50 274.65 390.54
  Q 277.84 391.34 279.27 388.79
  C 281.68 384.45 286.28 382.69 290.72 381.54
  C 294.41 380.58 298.15 381.65 301.88 382.38
  C 304.27 382.85 304.92 382.00 306.67 380.64
  C 311.63 376.79 320.07 379.76 325.44 381.56
  Q 325.88 381.70 326.34 381.63
  L 327.87 381.40
  Q 328.52 381.49 328.57 381.86
  Q 328.33 382.38 328.45 382.63
  A 1.73 1.73 0.0 0 0 330.72 383.51
  C 339.07 379.88 346.84 385.17 352.26 391.29
  Q 352.63 391.71 353.11 391.41
  L 354.33 390.65
  C 355.52 393.13 356.77 395.62 357.71 398.20
  Q 365.98 421.10 372.05 444.70
  Q 374.31 453.46 374.27 461.74
  C 374.23 468.97 373.23 477.50 373.94 484.40
  Q 374.88 493.54 377.78 500.96
  Q 381.05 509.31 394.27 538.00
  L 315.16 538.00
  Q 307.10 519.78 303.44 513.80
  Q 299.78 507.82 297.98 506.98
  Q 289.64 503.07 281.54 498.67
  C 278.37 496.95 274.32 495.56 270.95 493.60
  Q 264.80 490.01 263.34 489.27
  C 259.42 487.29 255.60 485.65 252.56 482.21
  Q 246.51 475.36 238.56 470.70
  Q 238.15 470.46 237.77 470.73
  Q 236.97 471.30 236.01 471.06
  C 232.07 468.22 226.68 466.66 223.35 463.51
  Q 215.31 455.91 205.24 451.13
  Q 207.16 449.69 205.07 448.16
  Q 201.10 445.27 196.99 442.10
  A 0.59 0.58 -70.4 0 0 196.05 442.55
  Q 196.03 443.18 195.79 442.91
  Q 195.60 437.21 200.83 435.82
  C 218.30 431.19 234.57 442.13 251.54 451.00
  C 252.19 451.34 253.04 451.28 253.71 451.17
  L 253.83 452.38
  Q 253.88 452.84 254.34 452.81
  L 259.74 452.46
  A 2.69 2.68 3.0 0 0 262.21 450.24
  C 262.78 447.02 263.13 443.94 262.86 440.58
  C 261.33 421.21 255.15 402.78 246.93 384.93
  C 241.51 373.15 233.62 359.66 226.89 347.11
  C 223.65 341.09 219.93 333.20 218.66 326.54
  Q 218.23 324.33 217.37 322.23
  Q 217.27 318.31 220.52 314.80
  C 228.80 310.95 233.00 316.54 237.02 322.70
  C 241.03 328.83 244.13 335.72 247.82 342.08
  Z
  M 220.85 319.59
  C 220.19 322.83 224.68 327.67 227.80 326.16
  C 230.94 324.65 229.81 318.00 227.44 316.36
  C 224.89 314.59 221.38 317.01 220.85 319.59
  Z"
/>
<path fill="#f6956a" d="
  M 261.63 314.96
  Q 261.92 315.65 261.89 316.68
  C 262.64 325.06 264.40 331.35 269.10 338.43
  Q 269.25 338.65 269.25 338.92
  Q 269.25 339.07 269.25 339.22
  Q 269.26 339.67 269.70 339.76
  Q 269.90 339.79 270.16 339.85
  Q 263.93 347.52 254.33 349.42
  Q 253.84 348.52 254.06 347.77
  Q 255.09 344.05 255.42 340.66
  Q 259.01 329.32 260.59 317.54
  Q 261.01 315.58 261.63 314.96
  Z"
/>
<path fill="#feffff" d="
  M 227.80 326.16
  C 224.68 327.67 220.19 322.83 220.85 319.59
  C 221.38 317.01 224.89 314.59 227.44 316.36
  C 229.81 318.00 230.94 324.65 227.80 326.16
  Z"
/>
<path fill="#fabf9f" d="
  M 261.89 316.68
  C 266.15 316.44 270.24 316.59 273.08 320.10
  C 278.23 326.47 274.78 334.12 270.16 339.85
  Q 269.90 339.79 269.70 339.76
  Q 269.26 339.67 269.25 339.22
  Q 269.25 339.07 269.25 338.92
  Q 269.25 338.65 269.10 338.43
  C 264.40 331.35 262.64 325.06 261.89 316.68
  Z
  M 274.53 323.99
  Q 274.21 322.80 272.99 322.66
  A 1.98 1.97 -80.6 0 0 270.82 324.22
  L 269.04 332.79
  A 1.47 1.47 0.0 0 0 271.69 333.92
  Q 274.57 329.72 275.30 324.67
  Q 275.31 324.60 275.25 324.58
  Q 275.12 324.54 275.00 324.50
  Q 274.63 324.36 274.53 323.99
  Z"
/>
<path fill="#575859" d="
  M 260.59 317.54
  Q 259.01 329.32 255.42 340.66
  Q 253.74 327.91 260.59 317.54
  Z"
/>
<path fill="#f6956a" d="
  M 217.37 322.23
  Q 218.23 324.33 218.66 326.54
  C 219.93 333.20 223.65 341.09 226.89 347.11
  C 233.62 359.66 241.51 373.15 246.93 384.93
  C 255.15 402.78 261.33 421.21 262.86 440.58
  C 263.13 443.94 262.78 447.02 262.21 450.24
  A 2.69 2.68 3.0 0 1 259.74 452.46
  L 254.34 452.81
  Q 253.88 452.84 253.83 452.38
  L 253.71 451.17
  Q 256.94 451.68 259.57 450.72
  Q 260.06 450.54 260.09 450.02
  C 261.26 431.88 257.32 414.78 249.53 398.39
  C 248.49 396.23 247.62 392.18 246.06 390.43
  Q 245.55 389.85 244.38 390.80
  Q 245.54 386.40 242.43 383.00
  Q 241.50 378.99 239.46 377.72
  L 226.87 351.81
  Q 221.28 341.24 217.73 329.08
  L 217.37 322.23
  Z"
/>
<path fill="#feffff" d="
  M 275.00 324.50
  Q 275.12 324.54 275.25 324.58
  Q 275.31 324.60 275.30 324.67
  Q 274.57 329.72 271.69 333.92
  A 1.47 1.47 0.0 0 1 269.04 332.79
  L 270.82 324.22
  A 1.98 1.97 -80.6 0 1 272.99 322.66
  Q 274.21 322.80 274.53 323.99
  Q 274.63 324.36 275.00 324.50
  Z"
/>
<path fill="#feffff" d="
  M 172.72 343.42
  C 169.41 340.14 168.30 335.75 170.80 331.59
  C 175.50 323.74 188.37 325.80 193.90 330.90
  C 202.59 338.94 196.28 348.89 185.75 348.49
  C 183.00 348.39 180.75 348.16 177.88 348.68
  Q 174.70 349.25 171.28 349.28
  A 0.70 0.69 14.8 0 1 170.67 348.24
  L 172.85 344.40
  Q 173.16 343.86 172.72 343.42
  Z
  M 178.95 336.12
  A 1.80 1.80 0.0 0 0 177.15 334.32
  A 1.80 1.80 0.0 0 0 175.35 336.12
  A 1.80 1.80 0.0 0 0 177.15 337.92
  A 1.80 1.80 0.0 0 0 178.95 336.12
  Z
  M 185.51 337.69
  A 1.82 1.82 0.0 0 0 183.69 335.87
  A 1.82 1.82 0.0 0 0 181.87 337.69
  A 1.82 1.82 0.0 0 0 183.69 339.51
  A 1.82 1.82 0.0 0 0 185.51 337.69
  Z
  M 191.98 339.28
  A 1.79 1.79 0.0 0 0 190.19 337.49
  A 1.79 1.79 0.0 0 0 188.40 339.28
  A 1.79 1.79 0.0 0 0 190.19 341.07
  A 1.79 1.79 0.0 0 0 191.98 339.28
  Z"
/>
<path fill="#85c8c2" d="
  M 217.73 329.08
  Q 221.28 341.24 226.87 351.81
  Q 224.39 355.32 222.47 360.19
  Q 221.98 361.44 220.84 361.54
  Q 215.61 351.77 213.44 340.31
  Q 212.03 332.91 217.73 329.08
  Z"
/>
<circle fill="#5fbd70" cx="177.15" cy="336.12" r="1.80"/>
<circle fill="#5fbd70" cx="183.69" cy="337.69" r="1.82"/>
<circle fill="#5fbd70" cx="190.19" cy="339.28" r="1.79"/>
<path fill="#7f9daf" d="
  M 253.97 349.74
  Q 254.02 350.52 253.58 351.24
  Q 252.79 350.79 252.53 350.32
  Q 253.38 349.74 253.97 349.74
  Z"
/>
<path fill="#b1d6f1" d="
  M 226.87 351.81
  L 239.46 377.72
  L 235.99 393.66
  Q 229.03 378.94 221.77 363.75
  C 221.57 363.33 221.12 362.99 220.77 362.74
  Q 220.67 362.02 220.84 361.54
  Q 221.98 361.44 222.47 360.19
  Q 224.39 355.32 226.87 351.81
  Z"
/>
<path fill="#2f363a" d="
  M 106.66 371.89
  L 107.69 372.01
  Q 108.13 372.06 108.17 372.51
  C 108.65 377.73 112.00 386.44 117.77 387.91
  Q 134.14 392.08 150.64 395.69
  C 159.18 397.56 169.00 400.14 178.27 402.05
  C 188.91 404.23 200.95 407.42 213.01 409.65
  Q 219.15 410.78 223.77 409.13
  L 230.30 406.82
  C 239.67 401.54 240.21 392.36 242.43 383.00
  Q 245.54 386.40 244.38 390.80
  C 242.31 402.83 239.16 414.17 225.14 415.87
  Q 221.59 416.30 216.00 414.95
  Q 202.83 411.77 195.50 410.26
  Q 194.26 410.01 192.49 410.46
  L 192.58 410.02
  Q 192.68 409.48 192.15 409.36
  Q 160.71 402.25 129.29 395.02
  Q 118.24 392.48 114.74 390.03
  Q 106.56 384.33 106.66 371.89
  Z"
/>
<path fill="#f6956a" d="
  M 327.87 381.40
  L 326.34 381.63
  Q 325.88 381.70 325.44 381.56
  C 320.07 379.76 311.63 376.79 306.67 380.64
  C 304.92 382.00 304.27 382.85 301.88 382.38
  C 298.15 381.65 294.41 380.58 290.72 381.54
  C 286.28 382.69 281.68 384.45 279.27 388.79
  Q 277.84 391.34 274.65 390.54
  Q 274.49 390.50 274.48 390.33
  Q 274.46 389.92 274.60 390.11
  Q 278.10 386.38 282.15 383.17
  C 288.44 378.17 293.84 379.17 301.26 379.99
  Q 303.61 380.25 304.54 378.33
  Q 304.76 377.87 305.26 377.75
  Q 313.51 375.77 321.74 377.79
  Q 323.48 378.22 327.87 381.40
  Z"
/>
<path fill="#7f9daf" d="
  M 239.46 377.72
  Q 241.50 378.99 242.43 383.00
  C 240.21 392.36 239.67 401.54 230.30 406.82
  Q 234.76 401.65 235.99 393.66
  L 239.46 377.72
  Z"
/>
<path fill="#f8ac1a" d="
  M 41.33 381.34
  Q 42.38 382.91 45.83 385.42
  Q 62.84 397.77 105.75 429.98
  L 108.97 432.10
  Q 109.39 432.38 109.52 432.86
  Q 109.91 434.36 111.82 435.30
  Q 103.27 449.23 97.19 457.69
  Q 96.33 458.90 94.56 459.17
  Q 67.74 436.42 40.44 414.12
  C 36.84 411.18 31.27 404.33 26.83 404.99
  Q 25.64 402.77 26.63 402.65
  L 39.92 389.21
  A 1.03 1.02 -49.1 0 1 41.26 389.11
  L 104.35 435.22
  Q 104.73 435.50 104.68 435.03
  Q 104.63 434.64 104.19 434.31
  Q 72.01 409.75 40.51 385.02
  A 1.04 1.03 42.6 0 0 39.18 385.07
  L 23.09 399.62
  Q 22.49 399.37 21.17 399.56
  Q 20.72 398.95 20.73 397.96
  Q 20.74 397.45 21.07 397.08
  Q 28.57 388.51 36.60 380.31
  Q 38.47 378.40 41.33 381.34
  Z"
/>
<path fill="#f6956a" d="
  M 354.33 390.65
  L 353.11 391.41
  Q 352.63 391.71 352.26 391.29
  C 346.84 385.17 339.07 379.88 330.72 383.51
  A 1.73 1.73 0.0 0 1 328.45 382.63
  Q 328.33 382.38 328.57 381.86
  C 332.25 380.99 336.25 379.73 339.87 380.19
  Q 349.66 381.41 354.33 390.65
  Z"
/>
<path fill="#feffff" d="
  M 26.63 402.65
  Q 23.45 401.46 23.09 399.62
  L 39.18 385.07
  A 1.04 1.03 42.6 0 1 40.51 385.02
  Q 72.01 409.75 104.19 434.31
  Q 104.63 434.64 104.68 435.03
  Q 104.73 435.50 104.35 435.22
  L 41.26 389.11
  A 1.03 1.02 -49.1 0 0 39.92 389.21
  L 26.63 402.65
  Z"
/>
<path fill="#fabf9f" d="
  M 21.17 399.56
  Q 22.49 399.37 23.09 399.62
  Q 23.45 401.46 26.63 402.65
  Q 25.64 402.77 26.83 404.99
  L 85.28 457.80
  A 0.95 0.95 0.0 0 1 85.42 459.04
  Q 62.36 492.79 39.62 527.10
  Q 35.19 533.78 33.19 538.00
  L 0.00 538.00
  L 0.00 425.62
  Q 9.79 415.43 19.19 404.78
  C 20.74 403.03 22.92 402.84 21.17 399.56
  Z"
/>
<path fill="#f6956a" d="
  M 26.83 404.99
  C 31.27 404.33 36.84 411.18 40.44 414.12
  Q 67.74 436.42 94.56 459.17
  C 90.07 461.56 88.37 464.57 85.60 468.69
  Q 62.40 503.16 39.62 538.00
  L 33.19 538.00
  Q 35.19 533.78 39.62 527.10
  Q 62.36 492.79 85.42 459.04
  A 0.95 0.95 0.0 0 0 85.28 457.80
  L 26.83 404.99
  Z"
/>
<path fill="#feffff" d="
  M 205.24 451.13
  C 200.98 449.07 197.03 446.41 195.79 442.91
  Q 196.03 443.18 196.05 442.55
  A 0.59 0.58 -70.4 0 1 196.99 442.10
  Q 201.10 445.27 205.07 448.16
  Q 207.16 449.69 205.24 451.13
  Z"
/>
<path fill="#f6956a" d="
  M 315.16 538.00
  L 309.13 538.00
  L 297.04 511.98
  A 5.14 5.12 2.9 0 0 295.00 509.73
  Q 277.87 499.66 259.88 490.29
  C 256.99 488.79 253.27 486.37 251.08 483.95
  Q 244.33 476.53 236.01 471.06
  Q 236.97 471.30 237.77 470.73
  Q 238.15 470.46 238.56 470.70
  Q 246.51 475.36 252.56 482.21
  C 255.60 485.65 259.42 487.29 263.34 489.27
  Q 264.80 490.01 270.95 493.60
  C 274.32 495.56 278.37 496.95 281.54 498.67
  Q 289.64 503.07 297.98 506.98
  Q 299.78 507.82 303.44 513.80
  Q 307.10 519.78 315.16 538.00
  Z"
/>
</svg>
